<svg version="1.1" xmlns="http://www.w3.org/2000/svg" width="512px" height="512px">
<path d="M0 0 C1.82184247 -0.00679667 1.82184247 -0.00679667 3.68048984 -0.01373065 C7.03505745 -0.02416935 10.38940993 -0.02570591 13.74397838 -0.02334189 C17.36853931 -0.0229325 20.99306866 -0.0339846 24.61761475 -0.04345703 C31.71292452 -0.06004202 38.80820105 -0.06556546 45.90352859 -0.06668179 C51.67411228 -0.06763353 57.44468504 -0.07175015 63.21526527 -0.07808304 C79.59273548 -0.09568932 95.97017952 -0.10492297 112.34765925 -0.10342209 C113.2298453 -0.10334218 114.11203136 -0.10326227 115.02095032 -0.10317993 C115.90421947 -0.10309817 116.78748863 -0.10301641 117.69752351 -0.10293217 C132.00516742 -0.10211964 146.31270595 -0.12125051 160.62031939 -0.14945666 C175.32775432 -0.17822112 190.03513793 -0.19199497 204.74260169 -0.19026911 C212.99306522 -0.1896064 221.24341831 -0.19504649 229.49385643 -0.21662521 C236.51975179 -0.23488404 243.54548666 -0.23914599 250.57139554 -0.22560637 C254.15182014 -0.21910005 257.73193727 -0.21887399 261.31233215 -0.23631287 C265.20486238 -0.25507595 269.09694954 -0.24242796 272.98950195 -0.22705078 C274.10568065 -0.23733791 275.22185934 -0.24762503 276.37186164 -0.25822389 C290.81093431 -0.13281837 305.19904042 5.16592718 315.83955383 15.10726929 C325.97060417 26.20127095 332.92731732 39.63050033 332.94363785 54.8802433 C332.94569048 55.5344292 332.94774312 56.18861511 332.94985795 56.86262482 C332.95551915 59.05801234 332.95407179 61.25333695 332.95265198 63.44873047 C332.95523612 65.0373798 332.95824942 66.62602848 332.96165538 68.21467626 C332.96972292 72.58315352 332.97151481 76.95161434 332.97225285 81.32009816 C332.97410384 86.03056227 332.98165144 90.74101787 332.98838806 95.45147705 C333.00197043 105.75324273 333.00799603 116.05500452 333.01239872 126.35677767 C333.01516145 132.78976683 333.01939888 139.2227545 333.02390289 145.65574265 C333.03609572 163.46802743 333.04639482 181.280311 333.04977798 199.09259987 C333.04999755 200.23265502 333.05021712 201.37271018 333.05044334 202.54731246 C333.05066161 203.69009183 333.05087989 204.8328712 333.05110478 206.01028025 C333.05154825 208.32597582 333.05199481 210.64167138 333.05244446 212.95736694 C333.05266589 214.10603132 333.05288732 215.2546957 333.05311546 216.43816809 C333.05706284 235.04756677 333.07451501 253.65692627 333.09780398 272.26630981 C333.12152334 291.37390246 333.13398011 310.48147546 333.1351459 329.58908308 C333.13606236 340.31660875 333.14180738 351.04408339 333.15996552 361.771595 C333.17537441 370.90708735 333.18048231 380.0425129 333.17222741 389.17801578 C333.16832365 393.83757673 333.16923718 398.49700319 333.18328476 403.15654755 C333.19603998 407.42654465 333.19481195 411.69630642 333.18269405 415.96630327 C333.18073985 417.50671844 333.18380261 419.04715038 333.19253841 420.58754201 C333.28754242 438.48005666 328.57939201 454.16891536 315.81221008 467.26742554 C303.19974085 478.17395289 290.05044772 482.57997952 273.62442017 482.53485107 C271.8025777 482.54164774 271.8025777 482.54164774 269.94393033 482.54858172 C266.58936272 482.55902042 263.23501023 482.56055698 259.88044178 482.55819297 C256.25588086 482.55778357 252.6313515 482.56883568 249.00680542 482.57830811 C241.91149565 482.5948931 234.81621911 482.60041654 227.72089157 482.60153286 C221.95030788 482.60248461 216.17973512 482.60660122 210.40915489 482.61293411 C194.03168469 482.63054039 177.65424065 482.63977405 161.27676091 482.63827316 C160.39457486 482.63819325 159.51238881 482.63811334 158.60346985 482.63803101 C157.72020069 482.63794924 156.83693154 482.63786748 155.92689665 482.63778324 C141.61925275 482.63697072 127.31171421 482.65610159 113.00410078 482.68430774 C98.29666584 482.71307219 83.58928224 482.72684605 68.88181847 482.72512019 C60.63135494 482.72445747 52.38100185 482.72989756 44.13056374 482.75147629 C37.10466838 482.76973512 30.07893351 482.77399707 23.05302463 482.76045744 C19.47260002 482.75395112 15.8924829 482.75372506 12.31208801 482.77116394 C8.41955779 482.78992702 4.52747063 482.77727904 0.63491821 482.76190186 C-0.48126048 482.77218898 -1.59743918 482.78247611 -2.74744147 482.79307497 C-17.18651414 482.66766944 -31.57462025 477.36892389 -42.21513367 467.42758179 C-52.34618401 456.33358013 -59.30289715 442.90435075 -59.31921768 427.65460777 C-59.32127032 427.00042187 -59.32332295 426.34623597 -59.32543778 425.67222625 C-59.33109899 423.47683873 -59.32965162 421.28151413 -59.32823181 419.08612061 C-59.33081596 417.49747128 -59.33382925 415.90882259 -59.33723521 414.32017481 C-59.34530275 409.95169756 -59.34709465 405.58323674 -59.34783268 401.21475291 C-59.34968368 396.5042888 -59.35723128 391.79383321 -59.3639679 387.08337402 C-59.37755027 376.78160834 -59.38357586 366.47984655 -59.38797855 356.17807341 C-59.39074129 349.74508424 -59.39497871 343.31209658 -59.39948273 336.87910843 C-59.41167555 319.06682365 -59.42197466 301.25454007 -59.42535782 283.44225121 C-59.42557738 282.30219605 -59.42579695 281.16214089 -59.42602317 279.98753861 C-59.42624145 278.84475924 -59.42645973 277.70197987 -59.42668462 276.52457082 C-59.42712808 274.20887526 -59.42757465 271.89317969 -59.42802429 269.57748413 C-59.42824572 268.42881975 -59.42846715 267.28015537 -59.42869529 266.09668298 C-59.43264268 247.48728431 -59.45009484 228.87792481 -59.47338381 210.26854126 C-59.49710317 191.16094861 -59.50955995 172.05337561 -59.51072574 152.945768 C-59.5116422 142.21824232 -59.51738721 131.49076768 -59.53554535 120.76325607 C-59.55095424 111.62776372 -59.55606215 102.49233817 -59.54780725 93.35683529 C-59.54390348 88.69727434 -59.54481702 84.03784789 -59.55886459 79.37830353 C-59.57161981 75.10830642 -59.57039179 70.83854466 -59.55827388 66.5685478 C-59.55631969 65.02813263 -59.55938245 63.4877007 -59.56811824 61.94730906 C-59.66312225 44.05479441 -54.95497185 28.36593572 -42.18778992 15.26742554 C-29.57532068 4.36089819 -16.42602755 -0.04512845 0 0 Z M-23.71513367 41.91195679 C-28.83543266 50.10171884 -28.6161129 58.17964606 -28.57546997 67.51251221 C-28.57964578 69.07146816 -28.58512466 70.63042107 -28.59178978 72.18936837 C-28.60623077 76.46184317 -28.60200389 80.73412484 -28.59462297 85.00661016 C-28.58989025 89.61885589 -28.60240209 94.2310599 -28.61264038 98.84329224 C-28.62983183 107.87471846 -28.63066765 116.90607512 -28.62542748 125.93751346 C-28.62138509 133.27896843 -28.62283015 140.62040285 -28.62817574 147.96185684 C-28.62892416 149.00697224 -28.62967258 150.05208764 -28.63044368 151.12887321 C-28.63197517 153.25206963 -28.63351352 155.37526604 -28.63505865 157.49846245 C-28.64878501 177.40718955 -28.6433451 197.31587735 -28.63187344 217.22460355 C-28.62194152 235.43358342 -28.63488078 253.64246167 -28.65880763 271.85142587 C-28.68319699 290.55344324 -28.69280686 309.25541327 -28.6861549 327.95744622 C-28.68266225 338.45519028 -28.68489782 348.95285619 -28.70240593 359.45058823 C-28.71712587 368.38733689 -28.71776606 377.32395238 -28.70033502 386.26069842 C-28.69182085 390.81892608 -28.68968565 395.3769158 -28.70498657 399.93513107 C-28.71883125 404.11127865 -28.71407346 408.2869844 -28.69474734 412.46310641 C-28.69098633 413.97043636 -28.69391226 415.47780169 -28.70435899 416.98510014 C-28.77070369 427.29407308 -28.05420762 436.12262297 -21.00028992 444.14242554 C-15.11112887 450.07631439 -7.55551449 451.71978738 0.51752418 451.80706125 C1.61286242 451.79882049 2.70820065 451.79057972 3.83673096 451.78208923 C5.61402748 451.79250753 5.61402748 451.79250753 7.42722899 451.80313629 C10.69424187 451.81820206 13.96066481 451.81549024 17.22767723 451.80498326 C20.75948017 451.79796553 24.29119182 451.8140086 27.82296753 451.82698059 C34.73335762 451.84858299 41.6435828 451.8485034 48.55399554 451.84035505 C54.17251386 451.83404607 59.79098421 451.8352003 65.40950203 451.84162712 C66.61062421 451.8429796 66.61062421 451.8429796 67.83601149 451.84435941 C69.46291038 451.84621068 71.08980926 451.84807324 72.71670813 451.84994697 C87.96049162 451.86651235 103.20418247 451.85781701 118.44796038 451.84096139 C132.38254474 451.82626576 146.31691344 451.84089308 160.25147002 451.86973155 C174.57360392 451.8991505 188.89563837 451.91009054 203.21780115 451.90054935 C204.83890154 451.89952684 206.46000195 451.89853223 208.08110237 451.89756584 C208.87863234 451.89708945 209.67616231 451.89661306 210.49785985 451.89612224 C216.10633813 451.89396139 221.71472191 451.9037446 227.32317924 451.91833687 C234.16289952 451.93588506 241.00234494 451.93570739 247.84205454 451.91298521 C251.32900808 451.90186531 254.81547785 451.89862845 258.30241013 451.91728592 C262.08896887 451.93322244 265.8742088 451.9182565 269.66070557 451.89561462 C270.75381308 451.90745035 271.84692059 451.91928608 272.97315258 451.93148047 C281.14881966 451.83235505 287.8198013 449.90816853 293.96200889 444.30698878 C302.26848379 435.70145845 302.24908461 426.31890288 302.19989014 415.02233887 C302.20406595 413.46338292 302.20954482 411.90443 302.21620995 410.34548271 C302.23065093 406.07300791 302.22642405 401.80072623 302.21904314 397.52824092 C302.21431042 392.91599519 302.22682226 388.30379117 302.23706055 383.69155884 C302.254252 374.66013262 302.25508781 365.62877596 302.24984764 356.59733762 C302.24580526 349.25588265 302.24725032 341.91444822 302.2525959 334.57299423 C302.25334432 333.52787883 302.25409275 332.48276343 302.25486385 331.40597787 C302.25639533 329.28278145 302.25793368 327.15958503 302.25947881 325.03638862 C302.27320518 305.12766152 302.26776526 285.21897373 302.2562936 265.31024753 C302.24636169 247.10126765 302.25930095 228.8923894 302.28322779 210.6834252 C302.30761716 191.98140784 302.31722702 173.27943781 302.31057507 154.57740486 C302.30708241 144.07966079 302.30931798 133.58199488 302.3268261 123.08426285 C302.34154603 114.14751418 302.34218623 105.2108987 302.32475518 96.27415265 C302.31624102 91.71592499 302.31410581 87.15793527 302.32940674 82.59972 C302.34325142 78.42357242 302.33849362 74.24786667 302.3191675 70.07174467 C302.31540649 68.56441471 302.31833242 67.05704938 302.32877915 65.54975094 C302.39512385 55.240778 301.67862779 46.4122281 294.62471008 38.39242554 C288.73554904 32.45853669 281.17993465 30.81506369 273.10689598 30.72778982 C271.46388863 30.74015097 271.46388863 30.74015097 269.78768921 30.75276184 C268.01039268 30.74234355 268.01039268 30.74234355 266.19719118 30.73171479 C262.93017829 30.71664901 259.66375535 30.71936084 256.39674294 30.72986782 C252.86494 30.73688554 249.33322835 30.72084248 245.80145264 30.70787048 C238.89106254 30.68626809 231.98083737 30.68634768 225.07042462 30.69449603 C219.45190631 30.70080501 213.83343596 30.69965078 208.21491814 30.69322395 C207.01379595 30.69187147 207.01379595 30.69187147 205.78840868 30.69049167 C204.16150978 30.6886404 202.5346109 30.68677783 200.90771203 30.68490411 C185.66392854 30.66833873 170.4202377 30.67703407 155.17645978 30.69388968 C141.24187543 30.70858531 127.30750673 30.69395799 113.37295014 30.66511952 C99.05081625 30.63570057 84.72878179 30.62476053 70.40661901 30.63430172 C68.78551862 30.63532423 67.16441822 30.63631884 65.54331779 30.63728523 C64.74578783 30.63776162 63.94825786 30.63823801 63.12656032 30.63872884 C57.51808203 30.64088968 51.90969826 30.63110648 46.30124092 30.61651421 C39.46152065 30.59896601 32.62207522 30.59914368 25.78236563 30.62186586 C22.29541208 30.63298576 18.80894232 30.63622262 15.32201004 30.61756516 C11.53545129 30.60162863 7.75021136 30.61659457 3.9637146 30.63923645 C2.87060709 30.62740072 1.77749957 30.61556499 0.65126759 30.60337061 C-9.61829115 30.7278833 -16.97860897 34.14922931 -23.71513367 41.91195679 Z " fill="#215cc8" transform="translate(119.18778991699219,14.732574462890625)"/>
<path d="M0 0 C12.42515924 11.78988794 19.25064768 26.13377151 20.53515625 43.20703125 C20.93972653 59.03584336 16.07980254 73.29023047 6.34765625 85.71484375 C7.27964844 86.23691406 8.21164062 86.75898438 9.171875 87.296875 C35.23094062 102.2118538 53.44719756 124.20184695 61.60839844 153.26293945 C61.83172852 154.09269287 62.05505859 154.92244629 62.28515625 155.77734375 C62.60274902 156.95526489 62.60274902 156.95526489 62.92675781 158.15698242 C64.35502399 163.83902431 65.90110228 170.06617217 62.72265625 175.40234375 C60.25933838 179.28949429 57.00767983 181.80283885 52.61869431 183.30762863 C49.41890513 183.88137618 46.25044246 183.85934744 43.01104736 183.85528564 C41.89957781 183.85974233 41.89957781 183.85974233 40.76565433 183.86428905 C38.28158363 183.87296383 35.7975612 183.87448326 33.31347656 183.87597656 C31.53278501 183.88060562 29.75209444 183.88563039 27.97140503 183.89102173 C23.13241647 183.90413969 18.29344177 183.91058956 13.45443821 183.91503239 C10.43046698 183.91796421 7.40649954 183.92206924 4.38253021 183.92653656 C-5.08095366 183.94021017 -14.54442887 183.94987738 -24.00792193 183.95373845 C-34.92799424 183.9582184 -45.84794133 183.97576396 -56.76797557 184.00473905 C-65.21142608 184.02636421 -73.65484138 184.03644319 -82.09831929 184.03777957 C-87.13996396 184.03882704 -92.1814909 184.04472245 -97.22310638 184.06259918 C-101.96733115 184.07909416 -106.71134986 184.08122841 -111.45559311 184.07246017 C-113.19380368 184.07169055 -114.9320254 184.07602261 -116.67020798 184.08591843 C-119.04964904 184.09866716 -121.42836349 184.09274568 -123.80780029 184.08233643 C-124.48992167 184.09039283 -125.17204305 184.09844923 -125.87483478 184.10674977 C-131.40652494 184.05044649 -136.95624247 182.92683708 -141.31164241 179.3534863 C-144.81025661 175.72976759 -145.08056729 171.71782869 -145.27734375 166.83984375 C-144.36545898 141.87391744 -129.85646136 119.69341851 -112.25 102.91796875 C-107.11962295 98.22495808 -101.53346555 94.41110139 -95.65234375 90.71484375 C-94.79769531 90.16828125 -93.94304687 89.62171875 -93.0625 89.05859375 C-91.27094297 87.92509545 -89.46394941 86.81601582 -87.65234375 85.71484375 C-88.17183594 84.95042969 -88.69132812 84.18601562 -89.2265625 83.3984375 C-99.27696248 67.96057727 -103.95984863 51.34433363 -100.58984375 32.90234375 C-97.65833611 20.45366245 -91.78159533 10.5737168 -82.65234375 1.71484375 C-81.69714844 0.74611328 -81.69714844 0.74611328 -80.72265625 -0.2421875 C-58.47727579 -21.4260664 -22.39623008 -19.29572106 0 0 Z M-63.3125 27.6875 C-68.58585588 35.03391962 -71.70748011 42.95485331 -70.34375 52.0703125 C-67.82693823 61.69676206 -63.25532884 68.66815267 -54.65234375 73.71484375 C-47.67467102 77.63361753 -39.55191258 77.99478729 -31.87109375 75.98828125 C-23.55051076 72.90565562 -18.27695392 68.23586489 -13.91796875 60.52734375 C-10.80567631 53.61113834 -9.72136054 46.14536362 -11.83984375 38.796875 C-15.05348577 30.56191733 -20.99735704 23.67603644 -28.8828125 19.546875 C-40.92337121 15.00769092 -54.8999855 17.69145336 -63.3125 27.6875 Z M-96.76953125 132.37109375 C-101.59271981 138.37506291 -106.77624207 145.21043703 -108.65234375 152.71484375 C-63.77234375 152.71484375 -18.89234375 152.71484375 27.34765625 152.71484375 C21.69389541 135.75356124 8.0405583 123.72111758 -7.40234375 115.52734375 C-16.24362127 111.26621257 -25.83739488 108.36917367 -35.65234375 107.71484375 C-36.35875 107.66328125 -37.06515625 107.61171875 -37.79296875 107.55859375 C-59.91493716 106.67957514 -81.66293594 116.41434372 -96.76953125 132.37109375 Z " fill="#215cc8" transform="translate(293.65234375,103.28515625)"/>
<path d="M0 0 C0.87809759 -0.00445784 1.75619518 -0.00891569 2.66090178 -0.01350862 C4.11680264 -0.01323207 4.11680264 -0.01323207 5.60211563 -0.01294994 C7.14191161 -0.01846498 7.14191161 -0.01846498 8.71281457 -0.02409142 C12.17512643 -0.03516219 15.63740832 -0.03897783 19.09973526 -0.04278088 C21.57302319 -0.04904293 24.04631016 -0.0556895 26.5195961 -0.0626936 C33.95823169 -0.08194624 41.39685932 -0.09252553 48.83551252 -0.10142139 C52.33736788 -0.10580302 55.83922173 -0.11117017 59.3410759 -0.11641026 C70.98025956 -0.13342375 82.61944228 -0.14791815 94.25863647 -0.155159 C97.27988817 -0.15706893 100.30113985 -0.15898926 103.32239151 -0.16094494 C104.07332157 -0.16142868 104.82425162 -0.16191242 105.59793714 -0.16241082 C117.76380646 -0.17071195 129.92957749 -0.19604969 142.09540388 -0.22852562 C154.58213518 -0.26158676 167.06881651 -0.27960692 179.55559182 -0.28280324 C186.56794468 -0.28496927 193.58015421 -0.2937313 200.59246445 -0.31926441 C207.18831789 -0.34322543 213.78395955 -0.34680302 220.37986374 -0.33650303 C222.8026401 -0.33600607 225.2254289 -0.34237332 227.64816666 -0.35605907 C230.9524645 -0.37368227 234.25582588 -0.36671829 237.56012344 -0.35352612 C238.52180113 -0.36449536 239.48347881 -0.37546461 240.47429824 -0.38676625 C246.2488838 -0.33099866 249.3967124 0.36521226 253.83508682 4.13422108 C257.61324759 8.43350747 258.13098648 12.30514423 258.04993057 17.85297108 C257.60918296 22.53290941 255.71853208 25.31703422 252.33508682 28.44672108 C249.00185527 30.69665237 246.50677737 31.25916349 242.57836056 31.26564884 C241.26867779 31.27141056 241.26867779 31.27141056 239.93253678 31.27728868 C238.97263095 31.27642219 238.01272512 31.27555571 237.02373123 31.27466297 C236.00451326 31.27763409 234.98529529 31.28060522 233.93519193 31.28366637 C230.50362199 31.29237111 227.07208686 31.29386312 223.64050674 31.29535389 C221.18677572 31.29998078 218.73304541 31.30500527 216.27931595 31.31039906 C209.60161641 31.32353693 202.92393056 31.3300072 196.2462213 31.33440971 C192.07700775 31.33717195 187.90779651 31.34140927 183.73858452 31.34591389 C172.19629404 31.35810659 160.65400542 31.36840595 149.11170864 31.37178898 C148.00352652 31.37211833 148.00352652 31.37211833 146.87295689 31.37245433 C146.13239695 31.37267261 145.39183701 31.37289089 144.62883586 31.37311578 C143.12816886 31.37355924 141.62750186 31.37400581 140.12683487 31.37445545 C139.01025988 31.3747876 139.01025988 31.3747876 137.87112782 31.37512645 C125.80880566 31.37907467 113.7465439 31.39652939 101.68424507 31.41981497 C89.30144283 31.44352642 76.9186709 31.45599073 64.53584558 31.4571569 C57.58278096 31.45807377 50.62979504 31.46382907 43.67675209 31.48197651 C37.13753987 31.49898366 30.59845075 31.50063166 24.05921364 31.4918375 C21.65740433 31.49106505 19.25558711 31.49543713 16.85379791 31.50529575 C13.57815014 31.51795412 10.30303701 31.51217139 7.02739334 31.50171375 C5.59757284 31.51379836 5.59757284 31.51379836 4.13886708 31.5261271 C-1.05182914 31.48729848 -4.68378007 31.05303162 -9.16491318 28.13422108 C-13.54834659 23.39537415 -14.47139286 19.68744147 -14.37975693 13.41547108 C-13.93614847 8.70515579 -12.04680832 5.93007767 -8.60241318 2.82172108 C-5.41455512 0.61474242 -3.81459055 0.00895945 0 0 Z " fill="#215cc8" transform="translate(134.16491317749023,330.86577892303467)"/>
<path d="M0 0 C1.30968277 -0.00576172 1.30968277 -0.00576172 2.64582378 -0.01163983 C3.60572961 -0.01077335 4.56563544 -0.00990687 5.55462933 -0.00901413 C6.5738473 -0.01198525 7.59306527 -0.01495637 8.64316863 -0.01801753 C12.07473857 -0.02672227 15.50627369 -0.02821428 18.93785381 -0.02970505 C21.39158484 -0.03433194 23.84531515 -0.03935643 26.29904461 -0.04475021 C32.97674414 -0.05788808 39.65443 -0.06435836 46.33213925 -0.06876087 C50.50135281 -0.07152311 54.67056405 -0.07576043 58.83977604 -0.08026505 C70.38206652 -0.09245774 81.92435514 -0.10275711 93.46665192 -0.10614014 C94.20543999 -0.1063597 94.94422807 -0.10657927 95.70540367 -0.10680549 C96.44596361 -0.10702377 97.18652355 -0.10724204 97.9495247 -0.10746694 C99.4501917 -0.1079104 100.95085869 -0.10835697 102.45152569 -0.10880661 C103.19590901 -0.10902804 103.94029234 -0.10924947 104.70723274 -0.10947761 C116.7695549 -0.11342583 128.83181666 -0.13088055 140.89411549 -0.15416613 C153.27691773 -0.17787758 165.65968966 -0.19034189 178.04251498 -0.19150805 C184.9955796 -0.19242493 191.94856552 -0.19818022 198.90160847 -0.21632767 C205.44082069 -0.23333482 211.97990981 -0.23498282 218.51914692 -0.22618866 C220.92095623 -0.22541621 223.32277345 -0.22978829 225.72456264 -0.23964691 C229.00021042 -0.25230528 232.27532355 -0.24652255 235.55096722 -0.23606491 C236.50418088 -0.24412132 237.45739455 -0.25217772 238.43949348 -0.26047826 C243.6301897 -0.22164964 247.26214063 0.21261722 251.74327374 3.13142776 C256.12670715 7.8702747 257.04975342 11.57820738 256.95811749 17.85017776 C256.51736987 22.5301161 254.62671899 25.3142409 251.24327374 28.44392776 C247.91004219 30.69385906 245.41496429 31.25637017 241.48654747 31.26285553 C240.1768647 31.26861725 240.1768647 31.26861725 238.84072369 31.27449536 C237.88081786 31.27362888 236.92091203 31.2727624 235.93191814 31.27186966 C234.91270017 31.27484078 233.8934822 31.2778119 232.84337884 31.28087306 C229.4118089 31.2895778 225.98027378 31.29106981 222.54869366 31.29256058 C220.09496263 31.29718747 217.64123232 31.30221196 215.18750286 31.30760574 C208.50980333 31.32074361 201.83211747 31.32721389 195.15440822 31.3316164 C190.98519466 31.33437864 186.81598342 31.33861596 182.64677143 31.34312057 C171.10448095 31.35531327 159.56219233 31.36561264 148.01989555 31.36899567 C146.91171344 31.36932502 146.91171344 31.36932502 145.7811438 31.36966102 C145.04058386 31.3698793 144.30002392 31.37009757 143.53702277 31.37032247 C142.03635577 31.37076593 140.53568878 31.3712125 139.03502178 31.37166214 C137.91844679 31.37199428 137.91844679 31.37199428 136.77931473 31.37233314 C124.71699257 31.37628136 112.65473081 31.39373608 100.59243198 31.41702166 C88.20962974 31.44073311 75.82685781 31.45319742 63.44403249 31.45436358 C56.49096787 31.45528046 49.53798195 31.46103575 42.584939 31.4791832 C36.04572678 31.49619035 29.50663766 31.49783835 22.96740055 31.48904419 C20.56559124 31.48827173 18.16377402 31.49264382 15.76198483 31.50250244 C12.48633705 31.51516081 9.21122392 31.50937808 5.93558025 31.49892044 C4.50575975 31.51100505 4.50575975 31.51100505 3.04705399 31.52333379 C-2.14364223 31.48450517 -5.77559316 31.05023831 -10.25672626 28.13142776 C-14.64015968 23.39258083 -15.56320595 19.68464815 -15.47157001 13.41267776 C-15.0308224 8.73273943 -13.14017152 5.94861463 -9.75672626 2.81892776 C-6.42349472 0.56899647 -3.92841682 0.00648536 0 0 Z " fill="#215cc8" transform="translate(135.2567262649536,390.8685722351074)"/>
</svg>