<svg version="1.1" id="Layer_1" xmlns="http://www.w3.org/2000/svg" xmlns:xlink="http://www.w3.org/1999/xlink" x="0px" y="0px"
	 width="100%" viewBox="0 0 240 240" xml:space="preserve">

<path fill="#fff" opacity="1.000000" stroke="none" 
	d="
M71.568542,161.429749 
	C59.531033,149.427383 51.362293,135.544907 46.716225,119.559822 
	C45.742981,116.211334 45.421059,112.894516 49.402058,111.739326 
	C53.330635,110.599350 54.895439,113.492867 55.957218,116.845184 
	C66.069496,148.772324 87.420448,169.003220 119.784325,177.375580 
	C125.517876,178.858795 131.610641,179.049103 137.561188,179.561401 
	C141.034012,179.860367 144.244080,180.555115 144.164551,184.650146 
	C144.084763,188.759537 140.910522,189.484344 137.372787,189.344849 
	C112.043037,188.346008 90.101471,179.355270 71.568542,161.429749 
z"/>
<path fill="#fff" opacity="1.000000" stroke="none" 
	d="
M184.179428,107.875961 
	C188.895218,110.058914 193.307602,111.999199 197.626450,114.129158 
	C200.471664,115.532349 202.895432,117.446793 201.182541,121.148079 
	C199.475357,124.837082 196.425812,124.284225 193.523438,123.016785 
	C184.094406,118.899200 174.722382,114.651108 165.324829,110.461296 
	C163.051529,109.447769 160.518951,108.804985 158.547058,107.380592 
	C156.190201,105.678146 153.066772,103.537849 152.649521,101.169014 
	C152.364746,99.552292 155.824966,96.648293 158.176620,95.326691 
	C162.932297,92.654030 168.054749,90.625290 173.059158,88.405922 
	C179.883423,85.379463 186.805389,82.564117 193.552673,79.377144 
	C196.945053,77.774811 199.637177,78.452484 201.213242,81.440437 
	C203.021606,84.868774 200.788879,87.069214 197.743164,88.449615 
	C188.856506,92.477318 179.952850,96.467484 170.707504,101.858139 
	C175.083755,103.810043 179.460022,105.761948 184.179428,107.875961 
z"/>
<path fill="#fff" opacity="1.000000" stroke="none" 
	d="
M119.234665,98.000000 
	C119.231636,86.001823 119.226463,74.503662 119.227600,63.005497 
	C119.227730,61.672775 119.195427,60.334988 119.295235,59.008358 
	C119.526215,55.938271 120.952377,53.561115 124.243843,54.734634 
	C125.802467,55.290337 127.685158,57.763794 127.703270,59.387550 
	C127.955490,82.007500 127.910614,104.630760 127.936462,127.253220 
	C127.941605,131.752502 127.812439,136.256561 127.981232,140.749542 
	C128.114853,144.306381 127.859993,148.320206 123.735596,148.387604 
	C119.035233,148.464417 119.219986,144.068527 119.225243,140.493317 
	C119.245834,126.495567 119.234123,112.497780 119.234665,98.000000 
M126.012672,121.499969 
	C126.010696,101.524773 126.055611,81.549240 125.910393,61.575092 
	C125.899727,60.107075 124.516426,58.649036 123.771263,57.186352 
	C122.847054,58.464878 121.123764,59.738785 121.116348,61.022606 
	C120.960640,87.988228 120.960739,114.955185 121.114517,141.920837 
	C121.121964,143.226257 122.814995,144.522079 123.723099,145.822372 
	C124.484894,144.540161 125.858971,143.279510 125.905006,141.972092 
	C126.133347,135.488144 126.011314,128.991867 126.012672,121.499969 
z"/>
<path fill="#fff" opacity="1.000000" stroke="none" 
	d="
M126.012695,121.999947 
	C126.011314,128.991867 126.133347,135.488144 125.905006,141.972092 
	C125.858971,143.279510 124.484894,144.540161 123.723099,145.822372 
	C122.814995,144.522079 121.121964,143.226257 121.114517,141.920837 
	C120.960739,114.955185 120.960640,87.988228 121.116348,61.022606 
	C121.123764,59.738785 122.847054,58.464878 123.771263,57.186356 
	C124.516426,58.649036 125.899727,60.107075 125.910393,61.575092 
	C126.055611,81.549240 126.010696,101.524773 126.012695,121.999947 
z"/>
</svg>