<svg version="1.1" id="Layer_1" xmlns="http://www.w3.org/2000/svg" xmlns:xlink="http://www.w3.org/1999/xlink" x="0px" y="0px"
     width="100%" height="100%" viewBox="0 0 400 400" preserveAspectRatio="none" xml:space="preserve">

<path fill="#fff" opacity="1.000000" stroke="none" 
	d="
M243.938263,233.969879 
	C243.779266,248.676178 245.864517,246.819138 231.433090,246.811234 
	C216.166946,246.802872 218.258072,248.835495 218.171249,233.656464 
	C218.095047,220.332214 218.211975,207.006851 218.137680,193.682571 
	C218.073090,182.094620 213.197968,177.251099 201.734421,177.192551 
	C195.952240,177.163010 190.169800,177.187378 183.715195,177.187378 
	C183.715195,179.848557 183.715210,181.616882 183.715195,183.385193 
	C183.715195,202.539444 183.607269,221.694733 183.793869,240.847168 
	C183.838425,245.420151 182.318237,247.180267 177.721359,246.910721 
	C172.741714,246.618698 167.728561,246.736130 162.736053,246.882065 
	C159.378983,246.980194 157.934952,245.772537 157.945679,242.250809 
	C158.028793,214.935440 158.025528,187.619614 157.948166,160.304214 
	C157.938583,156.918747 159.187866,155.422516 162.595520,155.446915 
	C178.748108,155.562607 194.929840,155.025421 211.046753,155.822021 
	C230.381241,156.777664 243.732635,171.548187 243.912292,191.003845 
	C244.043030,205.160156 243.938110,219.318634 243.938263,233.969879 
z"/>
<path fill="#fff" opacity="1.000000" stroke="none" 
	d="
M353.716705,188.256866 
	C359.133087,187.567902 361.240967,189.479431 360.824951,194.677734 
	C360.440979,199.475586 360.666748,204.329910 360.769257,209.156281 
	C360.838043,212.393372 359.793335,214.064377 356.194550,214.053772 
	C328.722046,213.972916 301.249054,213.973755 273.776520,214.052612 
	C270.176514,214.062943 269.152588,212.394745 269.225342,209.147919 
	C269.340973,203.988968 269.432007,198.817612 269.200989,193.666428 
	C269.012512,189.464050 270.799286,188.181122 274.829224,188.198608 
	C300.969482,188.312180 327.110474,188.256805 353.716705,188.256866 
z"/>
<path fill="#fff" opacity="1.000000" stroke="none" 
	d="
M86.000046,188.256805 
	C99.831955,188.256851 113.165970,188.391113 126.494568,188.181320 
	C130.952408,188.111145 132.968262,189.412735 132.665527,194.141403 
	C132.357391,198.954498 132.488281,203.805923 132.632263,208.634430 
	C132.742020,212.314651 131.577896,214.089569 127.500900,214.071548 
	C100.504326,213.952103 73.506790,213.962585 46.510067,214.064011 
	C42.729134,214.078217 40.948151,212.919846 41.097668,208.923004 
	C41.290661,203.764114 41.290421,198.587082 41.097752,193.428177 
	C40.949013,189.445480 42.753513,188.182251 46.504578,188.214264 
	C59.502239,188.325195 72.501434,188.256851 86.000046,188.256805 
z"/>
<path fill="#fff" opacity="1.000000" stroke="none" 
	d="
M205.859909,130.009003 
	C201.220596,130.008881 197.060242,129.911728 192.906937,130.040771 
	C189.837982,130.136124 188.232239,129.070328 188.239090,125.784866 
	C188.281433,105.497231 188.270569,85.209450 188.248718,64.921745 
	C188.245667,62.087662 189.393097,60.558907 192.381454,60.581276 
	C198.201385,60.624847 204.022018,60.621021 209.842026,60.584160 
	C212.766281,60.565643 213.978317,61.900612 213.970016,64.850624 
	C213.912964,85.138199 213.940369,105.426003 213.939178,125.713737 
	C213.938828,131.620224 209.460464,129.613815 205.859909,130.009003 
z"/>
<path fill="#fff" opacity="1.000000" stroke="none" 
	d="
M212.196442,272.646606 
	C213.043610,274.522156 213.879913,276.199982 213.887848,277.881744 
	C213.979874,297.356903 213.856201,316.833374 214.019089,336.307587 
	C214.053726,340.449158 212.672928,342.009430 208.531891,341.808258 
	C203.383835,341.558136 198.212540,341.663452 193.054886,341.777740 
	C189.703110,341.852020 188.210022,340.507782 188.220856,337.069214 
	C188.283859,317.094452 188.283188,297.119324 188.219757,277.144562 
	C188.209305,273.857666 189.338211,272.145447 192.841431,272.229218 
	C199.159363,272.380310 205.480789,272.384918 212.196442,272.646606 
z"/>
<path fill="#fff" opacity="1.000000" stroke="none" 
	d="
M124.905655,261.900970 
	C130.119766,253.412231 138.053986,253.575958 146.188507,254.117813 
	C149.279678,254.323700 150.729980,255.801743 150.736755,258.822815 
	C150.744965,262.489258 150.964539,266.175659 150.639923,269.813019 
	C150.494415,271.443451 149.590286,273.304718 148.443756,274.497192 
	C142.438583,280.743073 136.173981,286.739075 130.148743,292.966278 
	C127.299911,295.910553 124.946838,295.831940 122.195953,292.873688 
	C118.793770,289.215027 115.249794,285.674835 111.591927,282.271729 
	C108.921188,279.787018 108.852852,277.739899 111.541771,275.197845 
	C116.020912,270.963379 120.294754,266.511780 124.905655,261.900970 
z"/>
<path fill="#fff" opacity="1.000000" stroke="none" 
	d="
M150.738220,138.933182 
	C150.735229,148.074783 150.693375,147.556152 142.292725,148.233994 
	C135.122879,148.812515 130.016235,146.605255 125.477234,141.160767 
	C121.334450,136.191513 116.473038,131.802032 111.759026,127.335754 
	C109.018524,124.739265 108.647255,122.566460 111.578651,119.846703 
	C115.361237,116.337212 119.005341,112.666557 122.542885,108.908852 
	C125.107437,106.184708 127.184692,106.521538 129.640213,109.073570 
	C134.605194,114.233688 139.468430,119.547363 144.889816,124.195663 
	C149.479904,128.131210 151.747635,132.494614 150.738220,138.933182 
z"/>
</svg>