<?xml version="1.0" encoding="utf-8"?>
<svg version="1.1" id="Layer_1" x="0px" y="0px" width="100%" viewBox="0 0 240 240" xmlns="http://www.w3.org/2000/svg">
  <defs/>
  <path opacity="1.000000" stroke="none" d="M 71.125 181.705 C 52.715 163.209 40.221 141.818 33.116 117.186 C 31.627 112.024 31.135 106.915 37.223 105.134 C 43.232 103.377 45.625 107.836 47.249 113.002 C 62.715 162.2 95.369 193.375 144.866 206.276 C 153.635 208.562 162.953 208.855 172.054 209.643 C 177.365 210.104 182.275 211.176 182.153 217.485 C 182.031 223.819 177.176 224.935 171.766 224.72 C 133.026 223.18 99.469 209.326 71.125 181.705 Z" style="fill: rgb(255, 255, 255);"/>
  <path opacity="1.000000" stroke="none" d="M 200.693 126.963 C 207.878 130.566 214.6 133.768 221.18 137.283 C 225.514 139.599 229.207 142.76 226.597 148.868 C 223.997 154.957 219.351 154.044 214.929 151.953 C 200.564 145.156 186.286 138.145 171.969 131.229 C 168.505 129.557 164.647 128.496 161.643 126.146 C 158.052 123.335 153.294 119.803 152.658 115.893 C 152.224 113.224 157.496 108.431 161.079 106.251 C 168.324 101.839 176.128 98.49 183.752 94.828 C 194.149 89.832 204.694 85.186 214.973 79.925 C 220.142 77.281 224.243 78.399 226.644 83.33 C 229.399 88.99 225.998 92.621 221.358 94.9 C 207.819 101.547 194.254 108.132 180.169 117.03 C 186.836 120.252 193.504 123.474 200.693 126.963 Z" style="fill: rgb(255, 255, 255);"/>
  <path opacity="1.000000" stroke="none" d="M 130.904 140.86 C 130.899 152.989 131.271 164.258 130.576 175.506 C 130.434 177.776 126.242 179.962 123.918 182.186 C 121.146 179.931 115.979 177.683 115.958 175.419 C 115.488 128.638 115.488 81.857 115.963 35.078 C 115.986 32.85 121.244 30.641 124.064 28.422 C 126.338 30.96 130.559 33.489 130.591 36.036 C 131.034 70.686 130.897 105.341 130.904 140.86 Z" style="fill: rgb(255, 255, 255);"/>
</svg>